<?xml version='1.0' encoding='UTF-8'?>
<svg xmlns="http://www.w3.org/2000/svg" viewBox="10.500000 14.812500 124.187500 64.908838">
<g>
<path d="M 34.28 110.66 C35.01,106.16 33.77,105.97 30.01,109.99 L 27.22 112.97 L 26.78 109.94 C26.53,108.28 26.67,106.70 27.09,106.44 C27.51,106.19 28.15,104.61 28.51,102.94 C29.04,100.53 29.46,100.14 30.53,101.03 C31.27,101.64 31.62,102.83 31.30,103.66 C30.86,104.80 31.31,105.09 33.11,104.84 C34.69,104.61 35.61,103.74 35.82,102.25 C36.00,101.01 36.56,100.00 37.07,100.00 C38.31,100.00 38.24,103.15 36.88,108.57 C35.46,114.19 33.44,115.81 34.28,110.66 ZM 40.42 110.75 C42.25,105.73 46.13,99.88 47.35,100.28 C48.79,100.76 49.78,104.46 49.90,109.81 C49.96,112.45 49.61,113.88 49.00,113.50 C48.45,113.16 48.00,111.75 48.00,110.37 C48.00,106.99 44.98,107.55 43.20,111.26 C42.48,112.77 41.29,114.00 40.56,114.00 C39.49,114.00 39.46,113.38 40.42,110.75 ZM 47.00 104.50 C47.00,103.68 46.82,103.00 46.61,103.00 C46.39,103.00 45.95,103.68 45.64,104.50 C45.32,105.32 45.50,106.00 46.03,106.00 C46.56,106.00 47.00,105.32 47.00,104.50 ZM 61.23 112.78 C60.62,112.04 59.61,110.11 59.00,108.50 C58.11,106.17 57.70,105.87 56.96,107.03 C56.45,107.84 56.02,109.26 56.02,110.19 C56.00,111.97 54.25,113.58 53.33,112.66 C52.64,111.97 55.88,102.19 57.04,101.48 C57.52,101.18 58.79,102.64 59.86,104.72 L 61.81 108.50 L 63.53 104.21 C65.80,98.55 66.54,99.56 64.98,106.20 C63.30,113.39 62.66,114.51 61.23,112.78 ZM 69.24 107.60 L 69.44 101.00 L 73.60 101.00 C80.91,101.00 82.13,106.44 75.78,110.70 C69.25,115.07 69.02,114.96 69.24,107.60 ZM 77.00 104.80 C77.00,103.66 76.26,103.00 74.98,103.00 C72.96,103.00 71.72,105.09 70.38,110.79 L 69.74 113.50 L 73.37 110.05 C75.37,108.16 77.00,105.80 77.00,104.80 ZM 82.58 109.75 C83.00,107.41 83.36,104.72 83.39,103.76 C83.45,101.16 89.71,99.28 91.70,101.27 C93.80,103.37 91.88,106.65 88.07,107.48 C85.86,107.97 84.97,108.86 84.49,111.07 C83.44,115.81 81.71,114.61 82.58,109.75 ZM 89.84 102.50 C88.68,101.34 86.00,103.31 86.00,105.33 L 86.00 107.44 L 88.19 105.25 C89.40,104.04 90.14,102.81 89.84,102.50 ZM 93.55 110.75 C93.93,108.96 94.57,107.28 94.95,107.00 C95.34,106.72 96.50,105.04 97.54,103.25 C99.64,99.64 102.00,98.95 102.00,101.94 C102.00,103.01 102.34,104.09 102.76,104.35 C103.18,104.61 103.36,106.89 103.16,109.41 C102.79,114.13 101.00,114.89 101.00,110.33 C101.00,108.42 100.61,107.94 99.42,108.39 C98.55,108.73 97.64,109.00 97.39,109.00 C97.15,109.00 96.52,110.12 96.00,111.50 C94.57,115.25 92.69,114.68 93.55,110.75 ZM 99.68 103.81 C99.36,103.01 99.13,103.25 99.08,104.42 C99.04,105.47 99.27,106.06 99.60,105.73 C99.94,105.40 99.97,104.53 99.68,103.81 ZM 114.24 112.79 C113.65,112.07 112.85,110.25 112.47,108.74 C111.53,104.98 110.22,105.30 109.43,109.50 C108.73,113.24 107.00,114.32 107.00,111.02 C107.00,109.93 107.75,107.16 108.67,104.87 L 110.34 100.70 L 112.17 102.96 C113.18,104.20 114.00,105.85 114.00,106.61 C114.00,108.84 115.73,108.21 116.35,105.75 C116.66,104.51 117.58,102.60 118.41,101.50 C119.73,99.73 119.73,100.24 118.40,106.00 C116.74,113.22 115.83,114.71 114.24,112.79 ZM 123.75 112.40 C126.53,110.37 126.62,108.40 124.00,107.00 C122.90,106.41 122.00,105.48 122.00,104.92 C122.00,103.00 126.86,99.01 128.44,99.62 C130.69,100.48 130.36,103.00 128.00,103.00 C126.90,103.00 126.00,103.38 126.00,103.85 C126.00,104.31 126.90,105.50 128.00,106.50 C129.99,108.30 130.68,111.48 129.25,112.32 C128.84,112.57 126.93,113.05 125.00,113.41 C121.55,114.04 121.53,114.02 123.75,112.40 ZM 15.84 104.55 C14.42,101.44 16.10,96.81 20.24,92.37 L 23.17 89.23 L 19.99 87.64 C17.26,86.28 16.60,86.25 15.40,87.46 C13.28,89.58 13.72,91.00 16.50,91.00 C17.88,91.00 19.00,91.45 19.00,92.00 C19.00,92.55 17.64,93.00 15.97,93.00 C11.76,93.00 10.39,89.43 13.39,86.27 C15.84,83.68 18.80,83.33 19.65,85.53 C20.13,86.78 20.51,86.83 21.80,85.78 C23.13,84.70 23.28,84.76 22.77,86.13 C22.43,87.02 22.65,88.25 23.26,88.86 C24.07,89.67 23.52,91.02 21.23,93.86 C17.08,99.02 16.24,102.51 18.54,105.04 C20.16,106.84 20.17,107.00 18.63,107.00 C17.71,107.00 16.45,105.90 15.84,104.55 ZM 20.06 100.44 C20.03,99.30 21.38,97.05 23.07,95.44 C25.38,93.23 26.05,91.82 25.75,89.77 C25.43,87.60 25.62,87.27 26.68,88.15 C28.63,89.77 28.31,91.32 25.25,95.26 C23.74,97.20 21.96,99.62 21.31,100.64 C20.17,102.42 20.11,102.41 20.06,100.44 ZM 29.23 94.99 C31.09,91.24 31.11,90.82 29.59,88.49 C27.82,85.79 28.95,85.03 31.03,87.53 C32.80,89.67 32.47,94.83 30.41,97.10 C27.61,100.19 27.11,99.28 29.23,94.99 ZM 39.00 97.31 C39.00,96.98 39.78,96.15 40.74,95.45 C42.38,94.25 42.38,94.07 40.65,92.16 C37.64,88.84 40.45,84.08 44.50,85.64 C46.67,86.47 46.34,88.00 44.00,88.00 C41.45,88.00 41.48,88.82 44.10,91.61 C45.26,92.84 45.94,94.29 45.61,94.83 C44.90,95.96 39.00,98.18 39.00,97.31 ZM 72.69 96.33 C73.27,94.77 73.14,94.69 71.81,95.77 C67.99,98.87 64.83,93.79 67.63,89.04 C69.59,85.74 71.25,84.77 73.50,85.64 C75.65,86.46 75.35,88.00 73.04,88.00 C71.01,88.00 69.00,90.69 69.00,93.40 C69.00,94.30 69.58,94.72 70.38,94.41 C71.14,94.12 71.70,93.12 71.63,92.19 C71.54,91.06 72.38,90.40 74.15,90.19 C76.80,89.89 76.80,89.89 75.51,93.66 C74.79,95.73 73.71,97.60 73.10,97.80 C72.41,98.03 72.26,97.48 72.69,96.33 ZM 78.64 95.29 C79.36,92.41 83.45,85.92 84.55,85.90 C86.13,85.86 87.48,90.76 86.91,94.50 L 86.31 98.50 L 85.54 95.28 C84.87,92.51 84.50,92.20 82.88,93.06 C81.85,93.62 81.00,94.68 81.00,95.43 C81.00,96.18 80.32,97.05 79.49,97.37 C78.28,97.83 78.11,97.41 78.64,95.29 ZM 84.50 90.00 C84.84,89.45 84.64,89.00 84.06,89.00 C83.48,89.00 83.00,89.45 83.00,90.00 C83.00,90.55 83.20,91.00 83.44,91.00 C83.68,91.00 84.16,90.55 84.50,90.00 ZM 34.49 94.02 C35.38,92.30 35.84,90.06 35.51,89.04 C34.82,86.86 30.67,83.93 28.00,83.73 C26.98,83.65 26.36,83.23 26.63,82.79 C27.33,81.66 32.15,82.97 34.34,84.87 C38.50,88.50 38.74,94.00 34.82,96.09 C32.94,97.10 32.93,97.03 34.49,94.02 ZM 49.11 93.00 C49.06,90.53 49.45,87.84 49.96,87.03 C51.74,84.21 52.09,86.80 50.64,92.13 L 49.18 97.50 L 49.11 93.00 ZM 54.00 95.32 C54.00,92.86 56.27,87.00 57.22,87.00 C57.67,87.00 58.56,88.12 59.18,89.50 C60.67,92.78 61.31,92.65 62.76,88.82 C64.58,84.00 65.32,86.12 63.72,91.59 C62.01,97.46 60.69,98.08 58.94,93.85 L 57.60 90.62 L 56.30 93.81 C54.86,97.33 54.00,97.90 54.00,95.32 ZM 91.11 94.32 C90.88,87.50 94.68,83.59 98.69,86.52 C100.40,87.76 100.39,87.91 98.58,89.91 C97.54,91.06 95.95,92.00 95.04,92.00 C94.13,92.00 92.90,93.24 92.30,94.75 L 91.21 97.50 L 91.11 94.32 ZM 97.00 88.42 C97.00,87.62 96.38,87.30 95.50,87.64 C94.68,87.95 94.00,88.83 94.00,89.58 C94.00,90.38 94.62,90.70 95.50,90.36 C96.32,90.05 97.00,89.17 97.00,88.42 ZM 102.25 96.34 C100.30,95.55 100.78,90.22 103.00,88.00 C105.28,85.72 107.07,85.47 108.80,87.20 C110.56,88.96 110.27,91.39 107.93,94.37 C105.89,96.95 104.75,97.35 102.25,96.34 ZM 106.17 93.35 C108.36,91.36 108.59,88.00 106.54,88.00 C104.93,88.00 103.00,90.97 103.00,93.43 C103.00,95.44 103.88,95.41 106.17,93.35 ZM 112.54 92.50 C113.24,87.20 114.16,86.04 117.69,86.02 C120.67,85.99 121.53,87.75 119.60,89.89 C117.44,92.28 117.59,93.60 120.22,95.44 C121.74,96.51 121.97,97.00 120.95,97.00 C120.12,97.00 118.42,96.28 117.16,95.40 C115.03,93.91 114.76,93.93 113.38,95.65 C112.02,97.33 111.94,97.04 112.54,92.50 ZM 117.81 89.06 C118.06,88.31 117.69,87.94 116.94,88.19 C116.22,88.43 115.43,89.22 115.19,89.94 C114.94,90.69 115.31,91.06 116.06,90.81 C116.78,90.57 117.57,89.78 117.81,89.06 ZM 124.37 92.33 C124.72,89.76 125.12,87.55 125.25,87.42 C125.39,87.29 127.30,86.90 129.50,86.57 L 133.50 85.96 L 130.25 87.66 C126.40,89.68 125.96,91.30 129.50,90.41 C133.01,89.53 132.62,90.89 129.00,92.15 C125.25,93.46 125.11,95.00 128.75,95.02 C130.89,95.03 131.17,95.24 130.00,96.00 C129.18,96.53 127.43,96.98 126.11,96.98 C123.85,97.00 123.76,96.77 124.37,92.33 ZM 18.00 82.61 C18.00,82.40 19.49,81.52 21.32,80.65 C23.70,79.52 25.47,79.32 27.57,79.95 C30.37,80.79 30.31,80.83 26.31,80.91 C24.00,80.96 21.84,81.45 21.50,82.00 C20.92,82.94 18.00,83.45 18.00,82.61 ZM 63.50 79.51 C49.43,76.40 41.40,72.45 30.54,63.30 C22.45,56.47 19.49,51.55 20.43,46.51 C21.24,42.21 26.36,35.51 31.00,32.70 L 34.50 30.57 L 30.71 34.84 C20.85,45.92 23.45,55.32 38.32,62.42 C50.17,68.09 56.58,69.36 73.50,69.42 C85.86,69.47 90.05,69.09 97.30,67.25 C108.98,64.28 116.36,60.53 121.10,55.15 C126.73,48.75 126.25,42.70 119.56,35.51 C114.27,29.83 115.56,29.64 121.60,35.20 C127.05,40.22 129.00,43.70 129.00,48.39 C129.00,54.11 127.47,56.54 119.65,63.21 C102.60,77.76 82.27,83.66 63.50,79.51 ZM 90.54 76.45 C96.85,74.82 110.34,69.00 109.58,68.24 C109.33,68.00 106.96,68.49 104.31,69.33 C95.30,72.21 87.70,73.21 75.09,73.16 C63.07,73.12 50.98,71.22 42.73,68.09 C41.23,67.52 40.00,67.26 40.00,67.51 C40.00,68.45 51.70,73.77 57.50,75.46 C60.80,76.43 63.95,77.36 64.50,77.53 C67.68,78.52 85.38,77.79 90.54,76.45 ZM 70.45 60.55 C68.52,58.61 68.01,57.08 68.04,53.30 C68.05,50.66 68.67,47.42 69.40,46.10 C70.62,43.91 70.69,44.16 70.23,48.91 C69.49,56.69 72.62,61.34 77.03,58.98 C79.30,57.77 80.97,52.30 80.24,48.48 C79.85,46.41 80.03,45.90 80.97,46.48 C81.83,47.01 82.08,49.00 81.77,52.80 C81.40,57.26 80.78,58.79 78.60,60.67 C75.16,63.63 73.51,63.60 70.45,60.55 ZM 50.56 58.07 C48.34,55.61 49.20,50.86 52.71,46.18 C55.91,41.92 56.52,42.56 53.98,47.53 C51.61,52.19 51.43,55.84 53.54,56.65 C55.55,57.42 58.80,54.41 60.60,50.12 C61.38,48.23 62.26,46.93 62.55,47.22 C63.58,48.25 59.74,56.06 57.25,58.02 C54.10,60.50 52.77,60.51 50.56,58.07 ZM 93.18 58.75 C90.52,57.47 86.99,51.19 87.02,47.79 C87.04,46.01 87.45,46.38 88.88,49.50 C91.11,54.36 94.39,57.45 96.46,56.65 C98.43,55.90 98.44,51.36 96.48,47.60 C94.33,43.48 95.49,43.11 97.94,47.14 C100.39,51.15 100.61,56.25 98.43,58.43 C96.62,60.24 96.32,60.26 93.18,58.75 ZM 32.53 50.65 C29.60,48.51 30.11,43.41 33.58,40.04 C35.19,38.48 37.62,36.87 39.00,36.46 C41.27,35.78 41.19,35.97 38.16,38.51 C34.14,41.90 32.47,45.65 34.10,47.62 C35.72,49.57 37.21,49.35 41.36,46.53 C45.87,43.47 46.20,45.00 41.75,48.33 C37.36,51.62 34.76,52.27 32.53,50.65 ZM 111.50 50.84 C108.72,49.30 104.00,44.82 104.00,43.71 C104.00,43.21 105.62,44.21 107.60,45.95 C115.04,52.49 119.24,47.00 112.19,39.96 C107.71,35.48 107.86,34.97 112.68,38.25 C116.41,40.78 119.32,45.99 118.39,48.44 C118.04,49.33 116.95,50.49 115.95,51.03 C113.77,52.19 113.98,52.20 111.50,50.84 ZM 67.38 31.91 C64.19,30.99 61.27,28.40 62.27,27.40 C62.58,27.09 64.01,27.62 65.46,28.56 C69.12,30.96 80.75,31.05 84.32,28.71 C87.62,26.55 88.64,26.53 86.87,28.65 C83.65,32.54 74.70,34.04 67.38,31.91 ZM 42.36 27.26 C45.67,23.67 55.51,18.58 62.00,17.09 C68.75,15.53 81.91,15.79 88.07,17.59 C93.90,19.30 101.64,23.47 106.50,27.50 C108.15,28.87 108.96,29.99 108.31,30.00 C107.65,30.00 106.82,29.53 106.47,28.95 C105.77,27.81 95.04,22.67 88.50,20.33 C82.48,18.18 70.20,17.52 63.90,19.00 C57.69,20.46 47.44,24.87 42.73,28.12 L 39.50 30.34 L 42.36 27.26 ZM 64.00 23.87 C64.00,23.34 65.69,22.18 67.75,21.31 C70.87,19.99 72.57,19.90 77.88,20.79 C81.39,21.38 84.77,22.41 85.38,23.08 C86.24,24.01 86.04,24.11 84.50,23.50 C80.31,21.84 70.25,21.73 67.08,23.31 C65.38,24.16 64.00,24.41 64.00,23.87 Z" fill="rgba(0,0,0,1)"/>
</g>
</svg>
